HIERARCHY
ROOT Hips
{
	OFFSET	0.000000	0.000000	0.000000
	CHANNELS 6 Xposition Yposition Zposition Zrotation Xrotation Yrotation
	JOINT LeftUpLeg
	{
		OFFSET	12.830505	-7.049846	-1.643436
		CHANNELS 3 Zrotation Xrotation Yrotation
		JOINT LeftLeg
		{
			OFFSET	0.620834	-39.957500	-1.919341
			CHANNELS 3 Zrotation Xrotation Yrotation
			JOINT LeftFoot
			{
				OFFSET	-0.413890	-44.704761	-3.870325
				CHANNELS 3 Zrotation Xrotation Yrotation
				JOINT LeftFootHeel
				{
					OFFSET	0.164738	-8.918193	-6.555130
					CHANNELS 3 Zrotation Xrotation Yrotation
					End Site
					{
						OFFSET	-0.604053	0.000000	21.044330
					}
				}
			}
		}
	}
	JOINT RightUpLeg
	{
		OFFSET	-12.830505	-7.049846	-1.643436
		CHANNELS 3 Zrotation Xrotation Yrotation
		JOINT RightLeg
		{
			OFFSET	-0.620834	-39.957500	-1.919341
			CHANNELS 3 Zrotation Xrotation Yrotation
			JOINT RightFoot
			{
				OFFSET	0.413890	-44.704761	-3.870325
				CHANNELS 3 Zrotation Xrotation Yrotation
				JOINT RightFootHeel
				{
					OFFSET	-0.164738	-8.918193	-6.555130
					CHANNELS 3 Zrotation Xrotation Yrotation
					End Site
					{
						OFFSET	0.604053	0.000000	21.044330
					}
				}
			}
		}
	}
	JOINT Spine
	{
		OFFSET	0.000000	12.498170	1.820647
		CHANNELS 3 Zrotation Xrotation Yrotation
		JOINT Spine1
		{
			OFFSET	0.000000	7.620000	0.000000
			CHANNELS 3 Zrotation Xrotation Yrotation
			JOINT LeftShoulder
			{
				OFFSET	9.167800	29.136339	-5.551221
				CHANNELS 3 Zrotation Xrotation Yrotation
				JOINT LeftArm
				{
					OFFSET	12.133453	-3.880866	1.461963
					CHANNELS 3 Zrotation Xrotation Yrotation
					JOINT LeftForeArm
					{
						OFFSET	2.507115	-31.664908	-1.069404
						CHANNELS 3 Zrotation Xrotation Yrotation
						JOINT LeftHand
						{
							OFFSET	4.116172	-24.512624	5.009439
							CHANNELS 3 Zrotation Xrotation Yrotation
							End Site
							{
								OFFSET	-0.213136	-10.931856	2.182134
							}
						}
					}
				}
			}
			JOINT RightShoulder
			{
				OFFSET	-9.167800	29.136339	-5.551221
				CHANNELS 3 Zrotation Xrotation Yrotation
				JOINT RightArm
				{
					OFFSET	-12.133453	-3.880866	1.461963
					CHANNELS 3 Zrotation Xrotation Yrotation
					JOINT RightForeArm
					{
						OFFSET	-2.507115	-31.664908	-1.069404
						CHANNELS 3 Zrotation Xrotation Yrotation
						JOINT RightHand
						{
							OFFSET	-4.116172	-24.512624	5.009439
							CHANNELS 3 Zrotation Xrotation Yrotation
							End Site
							{
								OFFSET	0.213136	-10.931856	2.182134
							}
						}
					}
				}
			}
			JOINT Neck
			{
				OFFSET	0.000000	32.926272	-3.635654
				CHANNELS 3 Zrotation Xrotation Yrotation
				JOINT Head
				{
					OFFSET	0.000000	12.481178	4.646143
					CHANNELS 3 Zrotation Xrotation Yrotation
					End Site
					{
						OFFSET	0.000000	17.715204	-2.222063
					}
				}
			}
		}
	}
}
MOTION
Frames:     18
Frame Time: 0.016667
12.897249	104.197786	-9.319748	-4.296009	-8.540077	6.853114	-3.739239	1.977191	-0.307932	2.271966	2.460726	-2.172234	1.129710	4.289888	-2.961897	0.	0.	0.	-18.150150	-33.921352	-10.191814	-28.930960	138.684570	45.895134	1.118808	7.596626	13.927070	0.	0.	0.	-0.000002	0.000002	0.000000	-0.160321	5.479359	-7.890408	-1.119208	0.611826	-3.439464	5.773663	-2.865335	-2.308275	-10.071342	-7.906294	-9.591924	7.970938	4.397256	-9.616497	0.353668	1.603868	-4.372329	-4.512627	-0.042664	8.514779	4.557249	-19.546837	2.386694	-2.499375	3.275746	-1.052219	3.271214	5.882826	-4.860929	1.653602	1.170070	0.587453	
13.027551	104.149949	-9.620681	-4.282503	-8.813666	7.019462	-3.916000	1.964635	-0.468861	2.329901	2.661332	-2.376375	1.607922	4.364517	-2.679209	0.	0.	0.	-18.238070	-34.062069	-10.304120	-28.718971	138.838425	45.688721	1.230749	7.763771	13.820895	0.	0.	0.	0.000000	-0.000001	0.000003	0.617618	6.285617	-7.120979	-1.676732	0.214938	-4.244592	5.503933	-3.097221	-2.415599	-10.060066	-8.150741	-9.608946	8.084747	4.671866	-9.761355	-0.174589	0.880220	-4.942119	-4.559972	0.113813	8.050580	4.526787	-19.316601	2.239515	-2.607291	3.309115	-0.945414	2.437628	5.054257	-5.857382	2.012322	1.226005	0.539814	
13.027551	104.149949	-9.620681	-4.282503	-8.813666	7.019462	-3.916000	1.964635	-0.468861	2.329901	2.661332	-2.376375	1.607922	4.364517	-2.679209	0.	0.	0.	-18.238070	-34.062069	-10.304120	-28.718971	138.838425	45.688721	1.230749	7.763771	13.820895	0.	0.	0.	0.000000	-0.000001	0.000003	0.617618	6.285617	-7.120979	-1.676732	0.214938	-4.244592	5.503933	-3.097221	-2.415599	-10.060066	-8.150741	-9.608946	8.084155	4.443069	-9.681996	-0.174589	0.880220	-4.942119	-4.559972	0.113813	8.050580	4.526787	-19.316601	2.239515	-2.607291	3.309115	-0.945414	2.437628	5.054257	-5.857382	2.179360	0.873837	0.485563	
13.126126	104.109496	-10.033575	-4.276779	-9.305262	7.190872	-4.058938	2.033369	-0.529296	2.382392	2.987719	-2.779727	2.316603	4.529573	-2.353395	0.	0.	0.	-18.144636	-34.146458	-10.265279	-28.512556	139.024216	45.527187	1.434929	8.005258	13.579813	0.	0.	0.	0.000001	0.000000	-0.000001	0.969714	6.639458	-6.835044	-1.734687	0.780675	-4.327812	5.015139	-3.531977	-2.168650	-10.168544	-8.482684	-9.530154	8.393473	4.175864	-9.996105	-0.369410	0.779710	-4.722641	-4.756149	0.835837	7.374639	4.734223	-19.379562	2.164002	-2.863774	3.463099	-0.977255	1.555549	5.013400	-6.303813	2.896327	0.856655	0.401938	
13.128260	104.097404	-10.251255	-4.274792	-9.669539	7.295289	-4.116256	2.148142	-0.495104	2.429604	3.198400	-2.981258	2.976313	4.689856	-2.307122	0.	0.	0.	-18.009632	-34.155510	-10.116623	-28.456459	139.144424	45.484295	1.627464	8.149952	13.439672	0.	0.	0.	-0.000001	0.000000	0.000002	1.288433	7.072786	-6.640733	-1.782833	0.945799	-4.364840	4.612164	-3.724416	-1.624331	-10.335503	-8.634572	-9.421089	8.613454	4.018396	-10.293907	-0.575052	0.372065	-4.595262	-4.961314	1.810293	7.215622	4.853842	-19.697872	2.235277	-2.945277	3.552927	-0.979200	0.938692	4.236028	-6.304008	3.352380	0.964227	0.156209	
13.112025	104.078801	-10.399246	-4.261992	-9.958928	7.457345	-4.220798	2.251348	-0.501657	2.499310	3.346331	-3.075860	4.036886	4.927593	-2.404683	0.	0.	0.	-17.963400	-34.147495	-10.093992	-28.336588	139.227081	45.400181	1.833371	8.226815	13.347256	0.	0.	0.	-0.000001	-0.000001	0.000004	1.544771	7.382299	-6.547781	-1.963125	0.845037	-4.351135	4.357090	-3.472382	-0.806141	-10.614894	-8.721547	-9.336815	8.787771	3.807085	-10.387136	-0.780271	0.053893	-4.523958	-5.122589	2.842901	7.422513	4.865226	-20.008688	2.437328	-2.920734	3.539786	-0.912394	0.665235	3.881735	-6.491737	3.590628	0.590360	0.169346	
13.065341	104.055333	-10.491564	-4.237148	-10.121308	7.688822	-4.349091	2.299736	-0.463241	2.570607	3.381969	-3.202193	5.373734	5.257648	-2.584277	0.	0.	0.	-18.002661	-34.177933	-10.158372	-28.247490	139.303726	45.376938	2.027901	8.271137	13.254897	0.	0.	0.	0.000001	0.000000	-0.000001	1.703660	7.548754	-6.625060	-2.110740	0.722223	-4.283988	4.194424	-2.957157	0.080788	-10.986451	-8.845497	-9.204335	8.967813	3.509286	-10.151175	-0.900720	-0.096416	-4.373637	-5.333983	3.648780	7.676611	4.903016	-20.174879	2.920224	-2.857203	3.533114	-0.784640	0.502108	3.200558	-6.545467	3.607740	0.422238	0.252554	
13.050319	104.032369	-10.512243	-4.188759	-10.130538	8.084059	-4.477540	2.216028	-0.235568	2.596088	3.401301	-3.384175	6.759637	5.606855	-3.029503	0.	0.	0.	-18.241264	-34.316425	-10.279338	-28.200691	139.420822	45.444420	2.306802	8.320570	13.231607	0.	0.	0.	0.000000	0.000000	0.000003	1.796508	7.598606	-6.954983	-2.338301	0.230498	-4.158170	4.316071	-1.506379	0.876383	-11.568154	-9.161846	-8.800364	9.049769	3.083838	-9.218151	-0.885879	-0.234958	-3.981818	-5.896493	4.464081	7.729307	5.256045	-20.083513	4.158409	-2.859890	3.674929	-0.496749	0.340034	2.296859	-6.555235	3.568253	-0.064887	0.484866	
13.004482	104.106435	-10.451545	-4.158320	-10.096317	8.324709	-4.374650	2.210534	0.149223	2.425037	3.326953	-3.587191	7.314100	5.763964	-3.453824	0.	0.	0.	-18.462635	-34.394691	-10.275992	-28.209938	139.518570	45.495243	2.494030	8.349972	13.345624	0.	0.	0.	0.000000	0.000001	0.000000	1.793141	7.561657	-7.191313	-2.444631	-0.138399	-4.106534	4.545296	-0.370978	0.837718	-11.776011	-9.385032	-8.414051	8.837429	2.911511	-8.466253	-0.796845	-0.327674	-3.729513	-6.311275	4.876779	7.591919	5.573942	-19.784967	5.041193	-2.917671	3.762384	-0.250169	0.248085	1.760224	-6.327844	3.612348	0.083590	0.289017	
13.002589	104.140115	-10.430473	-4.144845	-10.081310	8.431220	-4.307544	2.231324	0.354663	2.287458	3.245642	-3.721541	7.592827	5.860322	-3.634538	0.	0.	0.	-18.555605	-34.412380	-10.254042	-28.229549	139.556702	45.531242	2.582747	8.367939	13.413484	0.	0.	0.	-0.000001	0.000000	-0.000002	1.792032	7.543240	-7.281404	-2.504156	-0.344705	-4.111137	4.680558	0.189951	0.672144	-11.776601	-9.444228	-8.230979	8.660380	2.882569	-8.154486	-0.755732	-0.389253	-3.636530	-6.475736	5.068937	7.508371	5.692709	-19.598780	5.409115	-2.945698	3.792733	-0.130784	0.265741	1.492412	-6.147419	3.577198	-0.281538	0.188302	
13.083300	104.181837	-10.403809	-4.121232	-10.040350	8.614069	-4.278579	2.290092	0.648299	2.084992	3.042952	-3.969463	8.099916	6.050327	-3.866413	0.	0.	0.	-18.718412	-34.441532	-10.183143	-28.249281	139.635986	45.607731	2.782393	8.350891	13.537159	0.	0.	0.	0.000000	0.000000	0.000000	1.770141	7.505156	-7.415201	-2.566070	-0.687180	-4.155992	4.913013	1.110569	0.145018	-11.560373	-9.410747	-7.888103	8.264400	2.966877	-7.825234	-0.668916	-0.502590	-3.488409	-6.679943	5.380839	7.398755	5.769279	-19.231544	5.851736	-2.973838	3.870121	0.060023	0.512899	0.991572	-5.800112	3.328074	-0.281543	-0.102220	
13.217806	104.205605	-10.405544	-4.112282	-9.914542	8.667819	-4.381792	2.262590	0.651197	1.958889	2.840689	-4.309754	8.559597	6.319330	-3.572411	0.	0.	0.	-18.839884	-34.694489	-9.921242	-28.169970	139.804886	45.522572	3.076053	8.273787	13.805903	0.	0.	0.	0.000000	0.000001	0.000003	1.778901	7.451261	-7.438853	-2.642858	-1.092331	-4.201884	5.065373	1.925098	-0.710918	-10.777266	-8.912889	-7.499907	7.850644	3.355888	-8.276333	-0.612954	-0.701015	-3.275487	-6.635591	5.623974	7.356967	5.541191	-18.640913	5.908187	-3.066472	4.040045	0.200558	0.745548	0.333228	-5.572887	3.240021	-0.155018	-0.197801	
13.258242	104.213744	-10.400638	-4.112282	-9.914542	8.667819	-4.414656	2.313805	0.515439	1.920942	2.759969	-4.351413	8.668428	6.415916	-3.384588	0.	0.	0.	-18.855623	-34.769722	-9.855822	-28.121429	139.840393	45.459591	3.174873	8.278463	13.855965	0.	0.	0.	0.000000	0.000001	0.000003	1.798730	7.481901	-7.437264	-2.671222	-1.190065	-4.207668	5.066072	2.041262	-0.920711	-10.426285	-8.626640	-7.431860	7.775538	3.532252	-8.629377	-0.603660	-0.750754	-3.201506	-6.571806	5.626184	7.327589	5.358139	-18.227175	5.801980	-3.152671	4.131289	0.270099	0.774367	-0.052811	-5.493478	3.161874	0.186930	-0.300301	
13.296813	104.213308	-10.421515	-4.026152	-9.925944	8.179560	-4.569175	2.531186	0.394000	1.779847	2.457833	-4.150855	8.922690	6.684089	-2.913867	0.	0.	0.	-18.669594	-35.195629	-9.320150	-27.768087	139.926086	45.130817	3.421392	8.282166	13.846582	0.	0.	0.	0.000000	-0.000001	-0.000001	1.664112	7.542405	-6.929657	-2.723224	-1.338396	-4.193461	4.922541	2.102650	-1.217581	-9.242785	-7.556242	-7.270148	7.766448	4.160244	-9.836366	-0.504686	-0.762409	-2.992594	-6.338036	5.463015	7.055703	4.976235	-17.762562	5.708202	-3.311728	4.258366	0.346265	0.820432	-0.404457	-5.375251	3.433686	-0.117924	-0.429209	
13.296813	104.213308	-10.421515	-4.026152	-9.925944	8.179560	-4.569175	2.531186	0.394000	1.779847	2.457833	-4.150855	8.922690	6.684089	-2.913867	0.	0.	0.	-18.669594	-35.195629	-9.320150	-27.768087	139.926086	45.130817	3.421392	8.282166	13.846582	0.	0.	0.	0.000000	-0.000001	-0.000001	1.664112	7.542405	-6.929657	-2.723224	-1.338396	-4.193461	4.922541	2.102650	-1.217581	-9.242785	-7.556242	-7.270148	7.766448	4.160244	-9.836366	-0.504686	-0.762409	-2.992594	-6.338036	5.463015	7.055703	4.976235	-17.762562	5.708202	-3.311728	4.258366	0.346265	0.850381	-0.708251	-5.373515	3.375426	0.181113	-0.448447	
13.284950	104.198687	-10.455288	-3.862512	-9.962886	7.562418	-4.728380	2.765460	0.436326	1.594736	2.168840	-3.773647	9.063772	6.936626	-2.669886	0.	0.	0.	-18.491392	-35.643330	-8.867789	-27.258413	139.996033	44.544582	3.577101	8.277580	13.860908	0.	0.	0.	0.000001	0.000001	0.000003	1.438208	7.641629	-6.279201	-2.720383	-1.468802	-4.191076	4.618194	2.033303	-1.119055	-8.086686	-6.453290	-7.031919	8.017079	4.621248	-10.705042	-0.401138	-0.766591	-2.841806	-6.059637	5.251280	6.589620	4.653217	-17.406715	5.718381	-3.623426	4.506349	0.474203	0.853271	-0.881319	-5.452576	3.580164	-0.317855	-0.203370	
13.273991	104.187050	-10.451541	-3.736825	-9.988504	7.211309	-4.781256	2.915353	0.607528	1.383277	2.007140	-3.588120	9.199180	7.059440	-2.648344	0.	0.	0.	-18.504189	-35.863590	-8.719723	-26.878637	140.020966	44.073700	3.614241	8.276438	13.960207	0.	0.	0.	-0.000001	0.000000	0.000001	1.243302	7.650131	-5.906205	-2.662102	-1.499656	-4.216434	4.427908	2.041419	-0.956151	-7.466035	-5.865252	-6.811660	8.313308	4.774270	-11.005041	-0.290289	-0.677649	-2.739658	-5.853086	5.099587	6.225788	4.471565	-17.285183	5.697360	-3.805775	4.585855	0.550386	0.860363	-1.153392	-5.674580	3.645879	-0.652484	0.024687	
13.281099	104.176566	-10.424657	-3.629439	-10.019262	6.953644	-4.804795	3.069909	0.839695	1.163214	1.859033	-3.524284	9.342848	7.150101	-2.662369	0.	0.	0.	-18.588762	-35.981926	-8.616071	-26.555979	140.066315	43.657284	3.604647	8.243925	14.140163	0.	0.	0.	-0.000001	0.000000	0.000001	1.085270	7.675949	-5.672859	-2.577376	-1.509869	-4.249888	4.303686	2.079895	-0.805786	-7.033403	-5.469421	-6.553726	8.883949	5.091890	-10.866610	-0.160483	-0.654969	-2.661060	-5.682177	5.018554	5.984644	4.341981	-17.294779	5.594374	-3.937476	4.636286	0.604130	0.822962	-1.480790	-5.829777	3.648993	-0.539860	0.160091	
